<svg width="852" height="852" viewBox="0 0 852 852" fill="none" xmlns="http://www.w3.org/2000/svg">
<g clip-path="url(#clip0_1_5)">
<path d="M791.959 0H60.0409C26.8812 0 0 26.8812 0 60.0409V791.959C0 825.119 26.8812 852 60.0409 852H791.959C825.119 852 852 825.119 852 791.959V60.0409C852 26.8812 825.119 0 791.959 0Z" fill="#2B2B2B"/>
<path d="M406.204 758.831C267.779 754.371 145.542 640.654 125.394 504.635C111.211 408.659 137.072 322.357 199.969 249.887C203.227 246.128 215.656 236.205 215.406 232.095C215.305 230.14 213.551 227.735 213.351 224.928C211.146 191.55 238.71 169.498 269.032 186.638C271.287 187.891 271.838 190.998 275.396 190.698C276.8 190.597 292.336 182.278 295.844 180.825C322.307 169.849 349.972 161.78 378.288 156.969L377.636 165.238C343.456 171.152 310.579 182.428 279.556 197.664C286.673 210.394 287.274 226.381 279.757 239.111C269.783 256.051 245.727 261.915 229.188 250.889C226.532 249.085 220.367 240.715 217.912 242.319C176.765 286.472 145.291 339.347 134.666 399.588C96.1257 618.301 293.489 800.579 508.594 741.09C512.553 739.987 539.817 731.116 540.719 729.663C541.722 728.109 538.514 718.487 538.464 715.279C537.963 684.006 571.842 667.417 597.703 685.158C600.409 687.013 602.214 691.624 605.922 689.769C639.652 663.307 668.92 629.377 688.616 591.188C690.371 587.78 697.187 575.752 696.034 572.995C695.483 571.642 692.175 569.687 690.922 567.582C684.006 555.905 690.471 537.412 704.153 534.705C706.108 534.304 710.819 535.156 711.52 534.505C713.826 532.55 720.291 482.132 720.942 475.366C722.296 460.982 722.346 448.954 720.942 434.72C718.737 412.869 715.48 391.269 709.365 370.219C701.196 342.253 688.917 316.643 673.882 291.835C671.777 289.429 667.567 293.84 664.46 295.143C626.972 310.629 598.806 265.223 622.11 235.252L621.76 233.699C586.828 203.979 543.526 183.431 499.372 171.302C495.062 170.099 472.309 166.14 471.356 165.037C470.605 164.185 471.557 158.823 471.256 157.019C527.939 167.794 583.47 190.347 627.724 227.735C639.551 224.778 647.119 220.668 659.648 223.575C688.316 230.241 695.332 264.02 679.345 286.422C729.112 358.542 739.887 451.911 719.689 536.409C722.145 539.917 725.102 540.769 727.408 545.029C732.119 553.75 731.417 565.928 723.699 572.795C715.981 579.661 706.208 576.152 703.702 577.756C703.401 577.957 701.797 583.47 701.046 584.973C683.404 620.005 660.15 653.484 630.981 679.846C627.373 683.104 609.982 695.432 608.879 697.237C607.276 699.793 611.385 707.561 611.786 711.771C614.543 739.887 590.085 760.435 563.072 751.213C554.101 748.156 550.693 742.192 544.077 736.93C513.305 749.86 480.328 757.729 446.849 758.831C433.718 759.232 419.284 759.232 406.204 758.831Z" fill="#07A38D"/>
<path d="M693.077 468.349C690.471 527.588 668.269 586.878 628.626 631.031C624.366 635.792 605.321 655.238 600.51 656.341C592.842 658.095 585.073 653.735 577.506 653.133C553.6 651.279 527.588 668.068 519.971 690.822C517.515 698.139 519.319 705.707 511.902 709.465C476.017 727.608 409.812 726.956 371.121 718.988C204.33 684.557 113.166 503.833 178.319 346.714C185.135 330.325 207.136 290.031 221.57 280.759C229.789 275.447 232.897 279.656 240.715 280.107C271.487 281.811 298.501 267.829 308.675 237.758C310.579 232.195 312.233 217.711 315.641 214.554C317.746 212.599 331.328 207.487 335.036 206.084C340.199 204.129 376.534 192.402 378.288 194.156V202.225C366.911 204.229 355.685 207.437 344.86 211.246C340.95 212.649 323.509 219.064 321.705 221.169C319.4 223.825 317.796 236.906 316.092 241.717C308.073 264.471 284.368 284.969 260.01 287.876C248.784 289.229 238.209 286.773 227.183 287.575C178.569 335.688 161.279 412.468 166.842 479.325C179.421 629.728 323.71 740.588 472.559 711.971C480.077 710.518 501.026 705.707 506.84 702.148C510.599 699.843 509.797 694.38 511.2 690.27C520.722 662.956 547.686 642.508 577.405 644.964C583.219 645.465 591.94 649.374 597.102 648.422C600.159 647.871 617.249 630.981 620.406 627.523C683.905 557.659 703.05 446.699 668.319 358.792C666.765 354.883 657.042 332.731 655.238 331.177C652.782 329.072 642.157 329.223 638.298 328.371C608.278 321.755 587.429 299.202 582.768 268.881C581.916 263.468 583.069 256.151 581.214 250.688C579.911 246.879 557.058 233.749 552.046 231.042C527.188 217.561 499.072 206.835 471.106 202.175V194.055C499.172 198.817 528.39 209.341 553.6 222.472C560.315 225.98 587.228 241.266 589.283 247.18C591.488 253.645 590.035 262.266 590.837 268.881C593.844 293.739 615.344 315.039 639.451 320.202C652.832 323.058 657.844 318.297 665.663 332.33C682.101 361.699 691.473 404.55 692.927 438.078C690.872 445.245 691.674 454.316 691.724 461.934C691.724 463.889 690.972 467.096 692.927 468.299L693.077 468.349Z" fill="#0AA28D"/>
<path d="M378.288 302.159C380.644 312.734 373.477 311.18 365.909 314.739C298.451 346.413 262.566 411.065 275.447 485.79C276.95 494.461 280.559 502.63 281.912 511.3C285.971 511.4 289.379 508.844 293.238 508.093C330.526 501.076 351.826 543.877 327.268 571.141V572.795C344.208 584.672 362.551 594.997 382.748 600.359C499.021 631.232 602.063 530.746 571.993 413.37C560.015 366.561 526.336 334.335 483.685 314.639C476.068 311.13 468.901 312.584 471.306 302.059C521.474 316.242 563.974 356.286 578.759 406.655C623.313 558.311 451.61 674.032 327.368 582.568C325.614 581.264 321.856 576.604 320.703 576.403C319.951 576.253 310.729 581.465 306.82 582.016C273.743 586.376 252.844 553.349 269.382 524.832C270.585 522.777 275.848 516.813 275.948 516.312C276.148 515.31 270.535 500.625 269.733 497.317C257.655 446.598 267.779 392.722 301.708 352.678C321.204 329.674 348.769 309.577 378.338 302.109L378.288 302.159Z" fill="#07A38C"/>
<path d="M419.886 408.258C483.385 401.342 494.21 499.523 431.062 506.589C367.914 513.656 356.938 415.124 419.886 408.258Z" fill="#03A38C"/>
<path d="M720.992 475.316V434.67C722.396 448.954 722.346 460.982 720.992 475.316Z" fill="#137F71"/>
<path d="M693.077 468.349C691.172 467.147 691.924 463.939 691.874 461.984C691.774 454.367 691.022 445.295 693.077 438.128C693.478 447.651 693.478 458.827 693.077 468.349Z" fill="#137F71"/>
<path d="M448.002 116.674C448.002 103.526 437.343 92.868 424.196 92.868C411.048 92.868 400.39 103.526 400.39 116.674V351.726C400.39 364.873 411.048 375.532 424.196 375.532C437.343 375.532 448.002 364.873 448.002 351.726V116.674Z" fill="white"/>
</g>
<defs>
<clipPath id="clip0_1_5">
<rect width="852" height="852" fill="white"/>
</clipPath>
</defs>
</svg>
